:SAMPLES-PER-SECOND 30
:FRAME-RANGE 1-564
:FULLY-SPECIFIED
:DEGREES
371
root  12.2501 39.0378 -87.0251 170.227 -12.8885 -176.336
RightUpLeg  1.40981 2.96996 8.54771
RightLeg  5.29466 -6.16804 -1.62491
RightFoot  -0.0810697 0.000469388 -0.0103607
RightToes  -1.74624e-010 0 -3.6325e-017
Spine  19.4643 2.80904 7.61788
Spine1  -1.82524 5.67533 -8.06811
HEad  21.4365 -8.04513 0.0398474
LeftShoulder1  3.66178 -7.28905 -27.8682
LeftArm  19.4106 -37.5132 -24.3472
LeftForeArm  -52.2151 -29.3926 -8.4253
LeftHand  0.13543 -5.67502 -1.09729
RightShoulder  18.8595 26.4145 54.8627
RightArm  1.3237 24.6197 -0.878436
RightForeArm  -32.8214 22.0072 6.89012
RightHand  4.29004 21.8561 17.4479
LeftUpLeg  -12.3148 -1.51664 5.95545
LeftLeg  37.9422 0.194506 0.538478
LeftFoot  -11.4844 0.0729281 3.11474
LeftToes  -6.43926e-010 8.38805e-011 -3.16407e-011
372
root  12.2348 39.0978 -87.7775 170.841 -12.8424 -176.493
RightUpLeg  2.17592 3.06203 8.69481
RightLeg  4.92913 -6.37153 -1.48595
RightFoot  -1.18115 0.040654 -0.547463
RightToes  -1.74624e-010 0 -3.6325e-017
Spine  20.0926 3.03697 7.31198
Spine1  -1.40847 5.96322 -8.52635
HEad  21.2483 -7.87191 0.0486631
LeftShoulder1  3.71695 -7.50314 -27.7051
LeftArm  22.7765 -40.1454 -25.4801
LeftForeArm  -54.9084 -27.1839 -7.90517
LeftHand  0.175193 -5.94591 -1.46269
RightShoulder  19.2364 27.2902 54.3656
RightArm  -2.60707 25.4355 -1.33575
RightForeArm  -31.5456 19.5133 7.96199
RightHand  4.27958 21.7805 17.4552
LeftUpLeg  -13.8127 -2.16786 5.5361
LeftLeg  28.8344 -2.23799 -0.988557
LeftFoot  -9.27033 0.0116339 2.44095
LeftToes  -6.43926e-010 8.38805e-011 -3.16407e-011
373
root  12.1889 39.1092 -88.5253 171.261 -12.7445 -176.297
RightUpLeg  2.67608 3.38058 9.17241
RightLeg  5.40509 -6.72314 -1.42674
RightFoot  -2.46545 0.049224 -0.849731
RightToes  -1.74624e-010 0 -3.6325e-017
Spine  20.8701 3.11109 7.36254
Spine1  -1.09154 6.19611 -8.9575
HEad  21.39 -7.61523 -0.0635185
LeftShoulder1  3.76807 -7.65861 -27.6926
LeftArm  25.4917 -42.4062 -26.6941
LeftForeArm  -57.0364 -24.6835 -7.42798
LeftHand  0.250201 -6.31619 -2.13908
RightShoulder  19.6101 28.1751 53.8671
RightArm  -7.36508 26.2333 -1.65978
RightForeArm  -28.9701 16.709 9.30771
RightHand  4.29012 21.7684 17.5068
LeftUpLeg  -14.3962 -2.26378 5.44132
LeftLeg  20.1185 -1.77865 -0.390239
LeftFoot  -7.07787 -0.012271 1.47411
LeftToes  -6.43926e-010 8.38805e-011 -3.16407e-011
374
root  12.1135 39.0688 -89.2793 171.489 -12.576 -176.042
RightUpLeg  2.94224 3.78143 9.72507
RightLeg  6.77534 -7.21978 -1.51884
RightFoot  -4.12034 0.0421975 -1.11148
RightToes  -1.74624e-010 0 -3.6325e-017
Spine  21.5829 3.19212 7.45161
Spine1  -0.385825 6.50126 -9.33763
HEad  21.3645 -7.3874 -0.154149
LeftShoulder1  3.83191 -7.88299 -27.5851
LeftArm  23.4559 -44.5815 -27.6085
LeftForeArm  -54.7979 -21.786 -9.08143
LeftHand  0.289129 -6.58834 -2.4525
RightShoulder  20.0082 29.0622 53.4499
RightArm  -11.8359 26.8572 -2.06472
RightForeArm  -26.0196 14.0557 10.3814
RightHand  4.19188 21.9458 16.9851
LeftUpLeg  -14.1913 1.0488 4.50682
LeftLeg  12.2387 -1.34143 1.09439
LeftFoot  -4.24228 -0.027778 0.860101
LeftToes  -6.43926e-010 8.38805e-011 -3.16407e-011
375
root  12.0026 38.9607 -90.0416 171.75 -12.4112 -175.685
RightUpLeg  2.83227 3.95812 10.2934
RightLeg  8.87398 -7.41247 -1.64479
RightFoot  -6.1558 0.0124807 -1.19674
RightToes  -1.74624e-010 0 -3.6325e-017
Spine  22.275 3.32454 7.60247
Spine1  0.361007 6.81651 -9.39941
HEad  20.9264 -7.59674 -0.197409
LeftShoulder1  3.88685 -8.13271 -27.3271
LeftArm  16.6449 -46.8058 -28.5015
LeftForeArm  -48.7765 -18.0716 -12.0171
LeftHand  0.349455 -6.29442 -3.12882
RightShoulder  20.309 29.8602 52.9434
RightArm  -16.0275 27.3604 -2.46333
RightForeArm  -23.1496 11.4856 11.1044
RightHand  4.1074 22.0413 16.5773
LeftUpLeg  -13.9353 3.2133 4.07159
LeftLeg  6.67165 -1.18369 1.28424
LeftFoot  -0.755381 0.102173 -1.05396
LeftToes  -6.43926e-010 8.38805e-011 -3.16407e-011
376
root  11.881 38.8228 -90.8427 171.549 -12.579 -174.9
RightUpLeg  3.33711 4.32122 11.4676
RightLeg  10.6438 -8.33721 -2.02654
RightFoot  -8.04616 -0.0172197 -1.29556
RightToes  -1.74624e-010 0 -3.6325e-017
Spine  23.2713 3.32831 7.84809
Spine1  1.19712 6.91146 -8.81918
HEad  20.0458 -7.71711 -0.417725
LeftShoulder1  3.96043 -8.33977 -27.3657
LeftArm  6.95127 -48.7704 -28.9086
LeftForeArm  -39.4883 -13.6903 -14.5546
LeftHand  0.423079 -6.27017 -3.86817
RightShoulder  20.5086 30.4844 52.4704
RightArm  -19.5593 27.8443 -2.81176
RightForeArm  -19.8986 9.12238 11.4311
RightHand  4.02237 22.327 16.0537
LeftUpLeg  -13.2509 3.79531 4.44849
LeftLeg  4.1693 -1.60486 0.897624
LeftFoot  -0.230604 0.275732 -2.82117
LeftToes  -6.43926e-010 8.38805e-011 -3.16407e-011
